<?xml version="1.0" encoding="UTF-8"?>
<svg id="Layer_1" data-name="Layer 1" xmlns="http://www.w3.org/2000/svg" viewBox="0 0 1000 1000">
  <defs>
    <style>
      .cls-1 {
        fill: #443025;
      }
    </style>
  </defs>
  <path class="cls-1" d="m468.54,153.92c-1.94,7.17,1.32,14.64,6.81,19.36,6.34,5.44,14.93,6.82,23.04,6.53,9.51-.34,18.85-2.93,28.41-2.49s17.74,4.45,26.87,5.3c6.78.63,14.34-.78,19.49-5.51,1.28-1.18,2.37-2.59,3.22-4.1.98-1.74,1.62-3.71,2.86-5.3,1.78-2.3,4.49-3.49,7.23-4.23,6.15-1.68,12.7-1.61,18.57-4.34,6.65-3.09,9.66-9.67,10.47-16.63.42-3.65.31-7.34.09-11-.27-4.3-.97-8.25-4.05-11.46s-7.08-5.44-10.65-7.91c-4.11-2.85-8.22-5.7-12.33-8.55-3.81-2.64-7.86-5.11-11.4-8.11-3.11-2.64-5.06-5.86-6.81-9.5-1.65-3.42-3.2-6.88-5.67-9.8s-5.68-4.82-9.21-5.94c-7.83-2.47-16.09-.76-23.81,1.23-4.49,1.16-9.01,2.45-13.65,2.8s-8.91-.33-13.37-.13c-7.39.33-12.96,3.67-17.26,9.56-3.71,5.09-6.03,11.1-9.98,16.03-4.3,5.38-10.29,7.17-16.68,8.96s-12.9,3.95-16.44,9.81c-3.86,6.39-2.41,14.83,1.55,20.81,4.55,6.87,11.99,10.98,19.1,14.71,1.55.81,3.09,1.64,4.64,2.47,2.56,1.36,4.83-2.52,2.27-3.89-10.21-5.44-25.01-11.62-25.32-25.2-.15-6.82,4.63-10.84,10.62-12.93s12.32-2.95,17.67-6.35c5.05-3.22,8.27-8.35,11.16-13.45,2.7-4.75,5.32-10.3,10-13.44,6.69-4.49,15.23-1.82,22.72-2.52,8.31-.77,16.11-4.18,24.39-5,6.77-.67,14.33.34,18.75,6.08,2.2,2.85,3.53,6.3,5.12,9.5s3.58,6.29,6.3,8.75c3.04,2.75,6.57,4.97,9.94,7.3,3.8,2.64,7.61,5.27,11.41,7.91s7.42,5.01,11.02,7.65c1.42,1.04,2.86,2.21,3.83,3.7,1.21,1.86,1.44,4.09,1.59,6.25.44,6.37.92,13.83-2.57,19.5-3.25,5.29-9.61,6.38-15.27,7.28-5.57.89-11.6,1.65-15.94,5.61-2.72,2.49-3.53,6.02-5.65,8.9-1.75,2.38-4.39,3.99-7.16,4.91-7.09,2.35-14.36.73-21.36-1.11-4.21-1.1-8.41-2.25-12.73-2.8s-8.99-.39-13.47.1c-13.82,1.5-35.2,6.84-43.04-9.08-1.39-2.83-1.81-5.98-.98-9.04.76-2.8-3.59-4-4.34-1.2Z"/>
  <path class="cls-1" d="m168.45,930c-1.94,7.17,1.32,14.64,6.81,19.36,6.34,5.44,14.93,6.82,23.04,6.53,9.51-.34,18.85-2.93,28.41-2.49,9.19.43,17.74,4.45,26.87,5.3,6.78.63,14.34-.78,19.49-5.51,1.28-1.18,2.37-2.59,3.22-4.1.98-1.74,1.62-3.71,2.86-5.3,1.78-2.3,4.49-3.49,7.23-4.23,6.15-1.68,12.7-1.61,18.57-4.34,6.65-3.09,9.66-9.67,10.47-16.63.42-3.65.31-7.34.09-11-.27-4.3-.97-8.25-4.05-11.46s-7.08-5.44-10.65-7.91c-4.11-2.85-8.22-5.7-12.33-8.55-3.81-2.64-7.86-5.11-11.4-8.11-3.11-2.64-5.06-5.86-6.81-9.5-1.65-3.42-3.2-6.88-5.67-9.8s-5.68-4.82-9.21-5.94c-7.83-2.47-16.09-.76-23.81,1.23-4.49,1.16-9.01,2.45-13.65,2.8-4.46.33-8.91-.33-13.37-.13-7.39.33-12.96,3.67-17.26,9.56-3.71,5.09-6.03,11.1-9.98,16.03-4.3,5.38-10.29,7.17-16.68,8.96s-12.9,3.95-16.44,9.81c-3.86,6.39-2.41,14.83,1.55,20.81,4.55,6.87,11.99,10.98,19.1,14.71,1.55.81,3.09,1.64,4.64,2.47,2.56,1.36,4.83-2.52,2.27-3.89-10.21-5.44-25.01-11.62-25.32-25.2-.15-6.82,4.63-10.84,10.62-12.93,5.89-2.05,12.32-2.95,17.67-6.35,5.05-3.22,8.27-8.35,11.16-13.45,2.7-4.75,5.32-10.3,10-13.44,6.69-4.49,15.23-1.82,22.72-2.52,8.31-.77,16.11-4.18,24.39-5,6.77-.67,14.33.34,18.75,6.08,2.2,2.85,3.53,6.3,5.12,9.5s3.58,6.29,6.3,8.75c3.04,2.75,6.57,4.97,9.94,7.3,3.8,2.64,7.61,5.27,11.41,7.91s7.42,5.01,11.02,7.65c1.42,1.04,2.86,2.21,3.83,3.7,1.21,1.86,1.44,4.09,1.59,6.25.44,6.37.92,13.83-2.57,19.5-3.25,5.29-9.61,6.38-15.27,7.28-5.57.89-11.6,1.65-15.94,5.61-2.72,2.49-3.53,6.02-5.65,8.9-1.75,2.38-4.39,3.99-7.16,4.91-7.09,2.35-14.36.73-21.36-1.11-4.21-1.1-8.41-2.25-12.73-2.8s-8.99-.39-13.47.1c-13.82,1.5-35.2,6.84-43.04-9.08-1.39-2.83-1.81-5.98-.98-9.04.76-2.8-3.59-4-4.34-1.2Z"/>
  <path class="cls-1" d="m433.18,405.47c7.02-5.1,14.03-10.2,21.05-15.3,6-4.36,12.33-9.45,20.23-8.23,7.48,1.15,14.08,5.34,21.85,5.07s14.83-3.9,22.46-4.97c5.28-.74,12.02-.24,15.6,4.26,2.12,2.66,2.48,6.26,2.97,9.5s1.16,6.67,3.07,9.5c6.09,9.01,24.07,10.3,21.37,24.24-2.98,15.37-21.85,15.88-34.01,17.78-6.8,1.06-13.34,3.18-18.4,8.05-4.75,4.57-7.81,10.62-12.77,14.98-5.33,4.69-12.61,5.76-19.46,5.92-3.75.09-7.53.03-11.28-.21s-7.44-.92-10.7-2.95-5.88-4.24-9.44-5.45c-3.03-1.03-6.31-1.32-9.49-1.34-6.72-.04-13.75,1.46-20.36-.28s-10.55-7.14-13.32-13.01c-3.19-6.76-6.02-14.56-6.27-22.08-.06-1.97.04-3.97.47-5.91.48-2.15,1.61-2.61,3.5-3.47,3.95-1.8,7.91-3.59,11.86-5.39,5.83-2.65,11.92-4.94,17.34-8.37l3.7-2.34c2.44-1.54.19-5.44-2.27-3.89-1.44.91-2.87,1.81-4.31,2.72-2.22,1.4-4.5,2.43-6.9,3.52-4.07,1.85-8.13,3.69-12.2,5.54-2.03.92-4.07,1.85-6.1,2.77s-4.21,1.64-6,2.89c-3.31,2.32-3.59,7.18-3.6,10.88,0,4.25.85,8.5,2.05,12.56,2.08,7.01,4.76,14.42,9.35,20.21s10.82,8.27,17.94,8.59c7.21.32,14.7-1.52,21.81.25,3.74.93,6.52,3.26,9.7,5.29,3.42,2.19,7.24,3.16,11.25,3.58,7.52.77,15.75.88,23.17-.68s13.02-5.69,17.64-11.58c4.43-5.65,8.34-11.69,15.37-14.31s14.75-2.66,22.09-4,14.33-4.1,19.18-9.61,6.77-13.21,3.84-19.87c-2.54-5.78-8.33-8.6-13.54-11.54-2.54-1.43-5.18-2.98-7.01-5.31-2.18-2.78-2.57-6.41-3.09-9.79s-1.28-7.03-3.46-9.92c-1.91-2.53-4.57-4.24-7.54-5.28-6.47-2.27-13.43-1.02-19.82.8-4.18,1.19-8.38,2.66-12.74,3.09s-8.11-.46-12.09-1.78c-3.67-1.22-7.29-2.62-11.15-3.15s-7.61.01-11.2,1.54c-3.77,1.6-7.09,4.01-10.39,6.41-3.71,2.69-7.42,5.39-11.13,8.09l-11.13,8.09c-2.32,1.69-.08,5.59,2.27,3.89Z"/>
  <path class="cls-1" d="m620.49,328.14c-7.89.78-16.12-.23-23.02-4.38-6.19-3.72-10.91-10.25-11.69-17.54-.9-8.43,4.91-14.54,7.14-22.2,1.1-3.77.99-7.71,1.13-11.59s.69-7.89,3.69-10.73c2.56-2.43,6.09-3.64,9.43-4.54,4.64-1.25,9.3-2.01,14.11-1.52,4.33.44,8.42.88,12.65-.45,3.75-1.18,7.16-3.23,10.35-5.48,7.1-5.01,13.89-10.18,21.58-14.31,3.99-2.14,8.1-4.13,12.44-5.46,3.72-1.14,8.26-2.29,12.13-1.29,3.64.95,5.36,4.55,7.49,7.31,2.15,2.77,4.86,4.74,8.23,5.77,3.58,1.09,7.44,1.07,11.15.93,1.72-.07,3.44-.17,5.16-.22,1.95-.06,4.31-.26,5.93,1.03,1.44,1.15,2.18,3.06,3.15,4.57,1.04,1.61,2.24,3.13,3.58,4.5,2.7,2.75,5.98,4.89,9.54,6.33s7.27,1.84,11.02,2.36,7.87,1.19,10.72,3.95c2.42,2.34,3.56,5.6,4.24,8.82.77,3.61,1.48,8,1,11.67-.26,1.96-1.41,3.5-2.34,5.18-1.06,1.91-1.73,3.92-2.05,6.08-.6,4.09-.05,8.22-.52,12.31-.84,7.35-6.78,12.79-13.4,15.38-8.41,3.29-17.68,2.75-26.53,3.03-4.48.14-8.99.47-13.37,1.44s-7.92,2.69-11.75,4.56c-4.44,2.17-8.73,2.67-13.62,2.74s-9.4.18-14-.74-8.6-2.75-12.84-4.32-8.67-2.79-13.14-3.61-8.96-1.29-13.47-1.37c-3.21-.06-6.52-.1-9.66.65l-5.09,1.23c-2.81.68-1.62,5.02,1.2,4.34l5.64-1.36c3.55-.86,7.79-.45,11.41-.22,4.7.29,9.35,1.03,13.91,2.19,4.76,1.21,9.26,3.03,13.85,4.73s9.36,2.7,14.32,2.93,9.79.29,14.55-.32,8.58-2.79,12.81-4.76,9.09-2.92,13.83-3.32c16.08-1.34,37.68,1.78,47.26-14.84,2.05-3.56,2.7-7.48,2.77-11.54.08-4.38-.43-8.97,1.78-12.94,1-1.79,2.18-3.5,2.66-5.52.53-2.25.36-4.56.18-6.84-.29-3.73-.69-7.54-1.88-11.11s-3.16-6.81-6.22-9.05c-3.4-2.49-7.57-3.25-11.65-3.8s-7.87-.99-11.46-2.76-6.82-4.44-9.08-7.79c-2.38-3.53-3.95-7.23-8.59-8.08-3.77-.7-7.79-.03-11.59.04s-7.8-.05-11.07-2.11-4.69-5.72-7.23-8.38c-6.15-6.48-16.73-3.62-23.97-.77-8.73,3.43-16.97,8.38-24.53,13.89-6.72,4.9-13.63,11.31-22.53,10.83-2.37-.13-4.72-.57-7.09-.67-2.5-.11-5,.16-7.47.58-4.13.7-8.31,1.77-12.11,3.58-3.54,1.68-6.65,4.35-8.27,7.98-1.7,3.81-1.73,8.01-1.83,12.11-.11,4.42-.83,8.27-2.77,12.26s-4.16,7.63-5.04,11.88c-1.57,7.58.87,15.39,5.6,21.38,5.15,6.51,13.03,10.33,21.14,11.59,4.01.62,8.04.72,12.08.32,2.86-.28,2.89-4.79,0-4.5Z"/>
  <path class="cls-1" d="m266.58,267.38c3.87-1.94,7.79-3.8,11.62-5.82,3.18-1.68,6.01-3.88,7.18-7.41s1.06-6.86,3.33-9.93,5.44-4.71,9.05-5.41c3.99-.77,8.12-.43,12.16-.8s7.5-1.41,11.06-3.01c7.01-3.13,13.97-8.44,22.06-7.72,6.78.61,10.05,6.75,13.55,11.74,1.7,2.42,3.52,4.74,5.88,6.55,2.85,2.18,6.2,3.04,9.68,3.67,8.19,1.48,15.8,4.38,23.16,8.21,3.58,1.86,7.07,3.88,10.54,5.93,3.27,1.94,7.37,3.77,9.69,6.9,2.2,2.96,2.09,6.92,1.54,10.39s-1.1,8.07-3.45,10.82c-4.15,4.86-12.11,4.5-17.66,6.79-2.94,1.21-5.68,2.98-7.39,5.74-2.09,3.36-1.67,7.38-2.69,11.06-1.87,6.78-7.17,12.1-13.21,15.38-7.26,3.94-15.67,5.31-23.8,6.04-4.49.41-8.99.61-13.5.75-4.15.13-8.6.65-12.7-.15-6.89-1.33-10.25-8.26-15.78-11.89-5.94-3.91-13.14-2.87-19.76-4.3-3.75-.81-6.22-2.68-8.79-5.44s-5.62-5.17-9.23-6.78c-3.42-1.52-7.01-2.38-10.62-3.32s-7.01-2.04-9.3-4.97c-4.57-5.86-4.66-15.55-1.18-21.91,1.62-2.96,4.04-5.43,7.02-7.03,2.04-1.1,4.29-1.42,6.44-2.2l4.56-1.65c2.7-.98,1.54-5.33-1.2-4.34l-5.13,1.85c-2.52.91-5.05,1.34-7.42,2.71-6.8,3.94-10.64,11.29-11.09,19.01s2.25,16.72,9.53,20.5,15.82,3.29,22.07,8.91c2.82,2.54,4.98,5.69,8.48,7.4s7.11,2.09,10.82,2.42,7.34.45,10.65,1.96,5.54,4.23,7.96,6.71,5.19,4.89,8.6,6.11c4.06,1.44,8.55,1.11,12.79.99,9.24-.25,18.55-.56,27.65-2.31,8.03-1.54,15.98-4.52,22.11-10.09,2.77-2.51,5.18-5.58,6.78-8.97.72-1.53,1.33-3.11,1.74-4.75.54-2.19.57-4.45,1.04-6.65,1.61-7.55,11.04-7.75,17.01-9.58,3.17-.98,6.36-2.44,8.56-5.02,2.68-3.14,3.48-7.45,4.22-11.39.7-3.71,1.15-7.68,0-11.36-1.23-3.97-4.15-6.71-7.56-8.9-7.22-4.64-14.85-9-22.71-12.47-3.93-1.74-7.97-3.25-12.14-4.32-3.94-1.01-8.48-1.08-12.11-3.05-5.53-3-8.02-9.7-12.04-14.24-5.28-5.96-12.83-7.1-20.26-4.89-8.13,2.43-14.93,8.44-23.49,9.53s-16.64-.5-23.33,5.41c-2.71,2.39-4.69,5.68-5.53,9.2-.46,1.92-.46,4.04-1.41,5.81s-2.78,2.81-4.47,3.72c-3.89,2.1-7.92,3.98-11.87,5.95-2.59,1.3-.31,5.18,2.27,3.89Z"/>
  <path class="cls-1" d="m793.29,893.73c3.87-1.94,7.79-3.8,11.62-5.82,3.18-1.68,6.01-3.88,7.18-7.41s1.06-6.86,3.33-9.93c2.22-3,5.44-4.71,9.05-5.41,3.99-.77,8.12-.43,12.16-.8,3.9-.35,7.5-1.41,11.06-3.01,7.01-3.13,13.97-8.44,22.06-7.72,6.78.61,10.05,6.75,13.55,11.74,1.7,2.42,3.52,4.74,5.88,6.55,2.85,2.18,6.2,3.04,9.68,3.67,8.19,1.48,15.8,4.38,23.16,8.21,3.58,1.86,7.07,3.88,10.54,5.93,3.27,1.94,7.37,3.77,9.69,6.9,2.2,2.96,2.09,6.92,1.54,10.39-.55,3.47-1.1,8.07-3.45,10.82-4.15,4.86-12.11,4.5-17.66,6.79-2.94,1.21-5.68,2.98-7.39,5.74-2.09,3.36-1.67,7.38-2.69,11.06-1.87,6.78-7.17,12.1-13.21,15.38-7.26,3.94-15.67,5.31-23.8,6.04-4.49.41-8.99.61-13.5.75-4.15.13-8.6.65-12.7-.15-6.89-1.33-10.25-8.26-15.78-11.89-5.94-3.91-13.14-2.87-19.76-4.3-3.75-.81-6.22-2.68-8.79-5.44s-5.62-5.17-9.23-6.78c-3.42-1.52-7.01-2.38-10.62-3.32s-7.01-2.04-9.3-4.97c-4.57-5.86-4.66-15.55-1.18-21.91,1.62-2.96,4.04-5.43,7.02-7.03,2.04-1.1,4.29-1.42,6.44-2.2,1.52-.55,3.04-1.1,4.56-1.65,2.7-.98,1.54-5.33-1.2-4.34l-5.13,1.85c-2.52.91-5.05,1.34-7.42,2.71-6.8,3.94-10.64,11.29-11.09,19.01-.44,7.72,2.25,16.72,9.53,20.5s15.82,3.29,22.07,8.91c2.82,2.54,4.98,5.69,8.48,7.4,3.38,1.65,7.11,2.09,10.82,2.42s7.34.45,10.65,1.96,5.54,4.23,7.96,6.71,5.19,4.89,8.6,6.11c4.06,1.44,8.55,1.11,12.79.99,9.24-.25,18.55-.56,27.65-2.31,8.03-1.54,15.98-4.52,22.11-10.09,2.77-2.51,5.18-5.58,6.78-8.97.72-1.53,1.33-3.11,1.74-4.75.54-2.19.57-4.45,1.04-6.65,1.61-7.55,11.04-7.75,17.01-9.58,3.17-.98,6.36-2.44,8.56-5.02,2.68-3.14,3.48-7.45,4.22-11.39.7-3.71,1.15-7.68,0-11.36-1.23-3.97-4.15-6.71-7.56-8.9-7.22-4.64-14.85-9-22.71-12.47-3.93-1.74-7.97-3.25-12.14-4.32-3.94-1.01-8.48-1.08-12.11-3.05-5.53-3-8.02-9.7-12.04-14.24-5.28-5.96-12.83-7.1-20.26-4.89-8.13,2.43-14.93,8.44-23.49,9.53-8.16,1.03-16.64-.5-23.33,5.41-2.71,2.39-4.69,5.68-5.53,9.2-.46,1.92-.46,4.04-1.41,5.81s-2.78,2.81-4.47,3.72c-3.89,2.1-7.92,3.98-11.87,5.95-2.59,1.3-.31,5.18,2.27,3.89Z"/>
  <path class="cls-1" d="m463.95,893.73c3.87-1.94,7.79-3.8,11.62-5.82,3.18-1.68,6.01-3.88,7.18-7.41s1.06-6.86,3.33-9.93,5.44-4.71,9.05-5.41c3.99-.77,8.12-.43,12.16-.8,3.9-.35,7.5-1.41,11.06-3.01,7.01-3.13,13.97-8.44,22.06-7.72,6.78.61,10.05,6.75,13.55,11.74,1.7,2.42,3.52,4.74,5.88,6.55,2.85,2.18,6.2,3.04,9.68,3.67,8.19,1.48,15.8,4.38,23.16,8.21,3.58,1.86,7.07,3.88,10.54,5.93,3.27,1.94,7.37,3.77,9.69,6.9,2.2,2.96,2.09,6.92,1.54,10.39-.55,3.47-1.1,8.07-3.45,10.82-4.15,4.86-12.11,4.5-17.66,6.79-2.94,1.21-5.68,2.98-7.39,5.74-2.09,3.36-1.67,7.38-2.69,11.06-1.87,6.78-7.17,12.1-13.21,15.38-7.26,3.94-15.67,5.31-23.8,6.04-4.49.41-8.99.61-13.5.75-4.15.13-8.6.65-12.7-.15-6.89-1.33-10.25-8.26-15.78-11.89-5.94-3.91-13.14-2.87-19.76-4.3-3.75-.81-6.22-2.68-8.79-5.44s-5.62-5.17-9.23-6.78c-3.42-1.52-7.01-2.38-10.62-3.32s-7.01-2.04-9.3-4.97c-4.57-5.86-4.66-15.55-1.18-21.91,1.62-2.96,4.04-5.43,7.02-7.03,2.04-1.1,4.29-1.42,6.44-2.2,1.52-.55,3.04-1.1,4.56-1.65,2.7-.98,1.54-5.33-1.2-4.34l-5.13,1.85c-2.52.91-5.05,1.34-7.42,2.71-6.8,3.94-10.64,11.29-11.09,19.01s2.25,16.72,9.53,20.5,15.82,3.29,22.07,8.91c2.82,2.54,4.98,5.69,8.48,7.4,3.38,1.65,7.11,2.09,10.82,2.42s7.34.45,10.65,1.96,5.54,4.23,7.96,6.71,5.19,4.89,8.6,6.11c4.06,1.44,8.55,1.11,12.79.99,9.24-.25,18.55-.56,27.65-2.31,8.03-1.54,15.98-4.52,22.11-10.09,2.77-2.51,5.18-5.58,6.78-8.97.72-1.53,1.33-3.11,1.74-4.75.54-2.19.57-4.45,1.04-6.65,1.61-7.55,11.04-7.75,17.01-9.58,3.17-.98,6.36-2.44,8.56-5.02,2.68-3.14,3.48-7.45,4.22-11.39.7-3.71,1.15-7.68,0-11.36-1.23-3.97-4.15-6.71-7.56-8.9-7.22-4.64-14.85-9-22.71-12.47-3.93-1.74-7.97-3.25-12.14-4.32-3.94-1.01-8.48-1.08-12.11-3.05-5.53-3-8.02-9.7-12.04-14.24-5.28-5.96-12.83-7.1-20.26-4.89-8.13,2.43-14.93,8.44-23.49,9.53-8.16,1.03-16.64-.5-23.33,5.41-2.71,2.39-4.69,5.68-5.53,9.2-.46,1.92-.46,4.04-1.41,5.81s-2.78,2.81-4.47,3.72c-3.89,2.1-7.92,3.98-11.87,5.95-2.59,1.3-.31,5.18,2.27,3.89Z"/>
  <path class="cls-1" d="m94.6,287.97c-.09-.19,4.38-1.43,4.86-1.64,1.59-.72,2.87-1.92,3.86-3.34.92-1.31,1.55-2.81,2.1-4.3.63-1.7.94-3.68,1.94-5.21,1.82-2.8,7.06-2.56,9.98-1.97,4.02.81,2.87,4.33,2.96,7.47.05,1.69.41,3.33,1.44,4.7.49.66,1.11,1.15,1.67,1.73.73.76.95,1.53,1.19,2.54.94,4.01.86,8.56-1.66,12.01s-6.48,3.87-10.36,4.03c-4.15.17-8.85.38-12.59-1.74-2.86-1.62-4.29-4-4.56-7.21l-.51-5.94c-.24-2.87-4.75-2.89-4.5,0,.19,2.17.38,4.35.56,6.52.34,4.14,2.21,7.38,5.61,9.79,4.31,3.06,9.92,3.27,15,3.11s10.27-.69,13.87-4.58c3.36-3.63,4.57-8.65,4.1-13.5-.23-2.32-.57-5-1.89-6.99-.61-.92-1.56-1.48-2.22-2.34-.71-.94-.66-2.09-.62-3.21.06-1.95.3-3.92-.31-5.81-.71-2.19-2.42-3.74-4.54-4.53-1.92-.71-4.05-.81-6.07-.79-2.42.03-5,.17-7.18,1.33-4.91,2.6-4.23,8.64-7.27,12.6-1.72,2.24-4.56,1.79-6.79,3.2s-3.01,3.97-1.93,6.33c1.2,2.63,5.08.35,3.89-2.27Z"/>
  <path class="cls-1" d="m151.27,281.75c.9.77,1.83,1.4,2.91,1.87.53.23,1.05.43,1.61.58.43.11,1.13.12,1.47.41.51.43.98,1.69,1.29,2.29.49.97.9,2.02,1.05,3.1.27,2.03-.56,3.55-2.18,4.72-1.77,1.27-3.76,2.5-5.83,3.18-1.23.4-3.72,1.11-4.72-.08-.58-.69-.65-2.01-.83-2.84-.29-1.34-.58-2.67-.87-4.01s-1.16-4.13.34-5.08c.32-.2.9-.28,1.33-.48.33-.15.67-.31,1-.46,2.06-.95,4.11-1.9,6.17-2.85,1.1-.51,1.38-2.1.81-3.08-.66-1.13-1.97-1.32-3.08-.81-2.14.99-4.29,1.98-6.43,2.97-.28.13-.58.33-.88.4.14-.04.54-.22-.02-.11-.36.07-.74.27-1.05.45-.75.43-1.37,1.03-1.87,1.73-1.83,2.53-1.27,5.66-.65,8.5.3,1.4.61,2.8.92,4.2.35,1.59.69,3.17,1.78,4.44,1.86,2.16,4.93,2.35,7.55,1.87,2.87-.52,5.54-2.02,7.94-3.61s4.42-3.51,4.95-6.42c.61-3.37-.63-6.58-2.31-9.45-.86-1.47-1.87-2.59-3.54-3.08-1.35-.39-2.54-.6-3.65-1.55-.92-.79-2.28-.91-3.18,0-.81.81-.93,2.39,0,3.18Z"/>
  <path class="cls-1" d="m90.51,88.55c7.63-4.02,16.87-.78,24.85.23,4.14.53,8.39.66,12.46-.43,4.7-1.26,8.74-4.08,12.92-6.44,8.58-4.84,18.59-7.96,28.5-6.34,5.06.83,9.93,2.56,14.99,3.43s10.4.66,15.65.3,10.53-.82,15.67.26c4.07.86,7.91,2.61,11.24,5.11,6.22,4.67,11.7,13.1,9.52,21.19s-11.66,8.71-17.15,13.25c-7.25,5.99-4.53,15.03-5.7,23.11-.6,4.14-2.84,7.3-6.39,9.45-3.74,2.27-7.96,3.01-12.13,4.11s-8.41,2.94-11,6.74c-2.32,3.39-2.69,7.83-.16,11.21,1.17,1.57,2.74,2.75,4.06,4.19,1.44,1.58,2.44,3.53,3.11,5.55s1.05,4.07,1.26,6.16.57,4.36.27,6.39-3.63,2.44-5.21,2.99c-2.62.91-5.26,1.79-7.94,2.49-4.86,1.27-9.76,1.79-14.78,1.42-9.77-.73-19.08-4.25-28.54-6.55-4.9-1.19-9.87-2.03-14.91-2.28-4.69-.24-9.43-.1-14.09-.74-4.37-.6-8.59-2.02-12.06-4.81-3.11-2.5-5.56-5.72-7.87-8.94-2.48-3.46-4.85-7.02-7.7-10.2-2.68-3-5.86-5.43-8.96-7.96s-6.01-5.02-7.92-8.41c-2.37-4.22-1.86-9.13-2.43-13.76s-2.29-8.19-5-11.74c-2.46-3.22-5.39-6.11-7.5-9.58-1.09-1.8-2.3-4.07-2-6.25s1.99-4.01,3.34-5.6c2.91-3.42,6.32-6.39,10.11-8.79,7.24-4.6,15.72-7.2,24.31-7.2,2.41,0,4.36-.63,6.67-1.3,2.78-.81,1.59-5.15-1.2-4.34l-3.2.93c-1.51.44-2.97.19-4.61.27-4.47.23-8.94,1.07-13.18,2.5-8.66,2.92-16.61,8.15-22.46,15.2-3.34,4.03-5.42,8.09-3.43,13.31,1.54,4.03,4.4,7.33,7.15,10.59,2.94,3.49,5.69,7.01,6.43,11.64.79,4.88.21,9.87,2.2,14.53,3.4,7.98,11.58,12,17.37,17.96s9.65,14.38,16.27,20.01c7.76,6.6,17.5,6.8,27.18,7.11,10.58.35,20.35,3.39,30.51,6.07s20.4,4.06,30.81,1.46c2.58-.65,5.12-1.45,7.63-2.32,2.29-.79,5.04-1.4,7.04-2.82,3.68-2.6,2.53-8.54,2.06-12.41-.56-4.53-1.79-9.01-4.65-12.66-2.43-3.1-6.97-5.36-4.78-9.89s7.68-5.5,12.09-6.57,8.4-2.4,11.91-5.04,5.96-6.44,6.66-10.92.11-8.7.53-13.05,2.59-7.49,6.47-9.65c3.43-1.91,7.19-3.18,10.34-5.58,7.24-5.52,7.29-15.23,3.68-22.91s-11.53-14.01-19.88-16.45c-10.54-3.09-21.36.42-32.04-.89-5.47-.67-10.7-2.64-16.12-3.59-5.14-.9-10.29-.79-15.41.23s-9.97,2.89-14.57,5.25-8.67,5.59-13.56,7.07c-8.74,2.63-17.95-1.23-26.74-1.65-4.27-.2-8.45.47-12.26,2.47-2.56,1.35-.29,5.24,2.27,3.89Z"/>
  <path class="cls-1" d="m87.66,387.44c6.78-4.18,14.76-4.96,22.52-5.75,8.17-.84,15.96-2.01,23.42-5.63,3.85-1.87,7.56-4,11.47-5.72,4.18-1.84,8.52-3.32,12.93-4.49,8.03-2.13,16.7-3.46,25.03-2.86,3.18.23,6.77.93,9.2,3.15,2.84,2.59,3.26,6.8,6.05,9.52,5.11,4.97,12.89,5.01,19.46,6.28,7.76,1.5,15.36,4.07,22.16,8.14,7.35,4.41,12.7,10.53,17.52,17.53s8.97,14.48,8.12,23.11c-.79,8.03-5.41,15.22-11.25,20.57-6.16,5.64-13.79,9.55-21.44,12.75-8.15,3.41-16.68,5.95-25.36,7.62-8.35,1.6-17.06,2.59-25.57,2.03-3.93-.26-7.84-.97-11.54-2.37s-7-3.88-10.04-6.62-5.92-5.13-9.56-6.76-7.54-2.5-11.53-2.92-7.78-.33-11.67-.07c-4.24.28-8.49.98-12.75.89-4.55-.1-8.37-1.77-12.23-4.05s-7.88-4.77-11.82-7.15-7.59-4.46-11.23-6.92c-2.86-1.93-5.72-4.14-7.71-7-2.54-3.66-2.88-7.76-2.51-12.1.36-4.24.88-8.55,1.92-12.68.95-3.78,2.46-7.49,5.07-10.44,1.15-1.3,2.45-2.45,3.95-3.32,1.31-.76,2.86-1.03,4.06-1.93,1.31-.97,2.51-2.11,3.76-3.16,2.22-1.87-.98-5.04-3.18-3.18l-1.79,1.51-1.3,1.1c-.18.15-.36.32-.55.46-.48.35.23-.24.25-.24-.67-.07-2,.77-2.56,1.05-.81.4-1.59.88-2.33,1.41-1.58,1.14-2.99,2.46-4.21,3.98-5.52,6.89-6.64,15.89-7.5,24.39-.46,4.51-.33,8.97,1.67,13.12,1.67,3.46,4.48,6.27,7.47,8.6,3.15,2.46,6.59,4.49,10,6.55,4.43,2.69,8.86,5.37,13.3,8.06,3.73,2.26,7.52,4.69,11.8,5.75,4.65,1.15,9.42.61,14.12.16,8.14-.77,16.88-1.32,24.64,1.79,4.18,1.68,7.31,4.64,10.64,7.57,3.11,2.72,6.45,4.89,10.31,6.39,7.84,3.05,16.61,3.1,24.88,2.45,18.34-1.43,37.05-6.54,53.02-15.81,7.45-4.33,14.32-10.04,18.69-17.57,4.27-7.38,5.92-16.14,3.49-24.41-2.49-8.47-8.15-16.36-13.78-23.04s-12.39-11.24-20.02-14.56-15.41-4.83-23.53-6.2c-3.44-.58-7.35-1.31-10.01-3.76-2.9-2.66-3.28-6.98-6.23-9.69-5.74-5.28-14.72-4.86-21.94-4.28-9.36.75-18.6,2.87-27.32,6.36s-16.05,8.74-25.06,10.64c-8.16,1.71-16.6,1.59-24.73,3.48-3.86.9-7.6,2.31-10.98,4.4-2.46,1.52-.2,5.41,2.27,3.89Z"/>
  <path class="cls-1" d="m51.18,660.1c16.39,1.85,25.14-15.23,34.14-25.68,2.3-2.67,4.83-5.2,7.84-7.06,3.53-2.19,7.49-3.2,11.62-3.38,1.75-.08,4.26-.43,5.64.88,1.3,1.24,2.02,3.31,3.06,4.78,2.1,2.95,4.63,5.52,7.59,7.62,6.06,4.3,13.23,5.6,20.39,3.67,3.57-.96,7.68-2.93,11.44-2.05,3.34.78,4.79,3.97,5.93,6.88,1.28,3.27,2.48,6.54,4.93,9.15s5.81,4.44,9.32,5.06c4.1.72,7.9-.44,11.87-1.32,4.3-.94,9.06-1.34,13.43-.61,2.04.34,2.32,1.8,2.81,3.6.59,2.18,1.04,4.41,1.3,6.65.51,4.34.47,8.8-.2,13.12-.63,4.09-1.69,8.38-3.58,12.08s-5.07,6.3-8.81,8.05c-13.89,6.49-31.96,1.11-43.68,12.92-2.7,2.72-4.36,6.02-8.38,6.9-4.41.96-9.17,1.07-13.67,1.22-4.77.16-9.55.06-14.32-.28-4.5-.33-9-1.16-13.52-1.15-4.24,0-8.05,1.04-11.74,3.11-1.7.95-3.34,2.02-5.15,2.75-2.09.84-4.32,1.33-6.52,1.73-8.03,1.44-16.46,1.92-23.04-3.67-2.86-2.43-5.44-5.25-8.65-7.23s-7.36-2.43-10.45-4.73c-5.34-3.96-6.41-11.65-6.29-17.82.16-8.16,2.38-16.71,7.8-23.01,2.36-2.74,5.18-5.02,8.42-6.62,1.51-.75,3.11-1.31,4.76-1.69,1.26-.3,2.17-.52,3.18-1.31,1.37-1.07,2.75-2.14,4.12-3.2,2.28-1.78-.92-4.94-3.18-3.18-1.4,1.09-2.82,2.54-4.37,3.4-.09.05-.16.16-.25.19,1.28-.51-.15-.36-.42-.29-.83.18-1.64.41-2.45.68-1.96.66-3.87,1.54-5.64,2.62-6.86,4.18-11.66,10.9-14.19,18.46-2.53,7.56-3.23,16.45-1.17,24.21.89,3.33,2.4,6.54,4.71,9.11,2.67,2.97,6.17,4.17,9.82,5.51,3.91,1.43,6.72,4.21,9.76,6.95s6.33,5.1,10.36,6.2c4.09,1.11,8.42,1.08,12.6.62,4.36-.48,8.84-1.13,12.92-2.82s7.52-4.67,12.05-5.27c4.63-.62,9.37.34,13.98.77,9.71.9,19.56.76,29.24-.49,2.09-.27,4.19-.64,6.06-1.69,1.74-.97,3.12-2.45,4.38-3.96,2.57-3.08,5.26-5.53,8.98-7.16,7.38-3.23,15.69-3.23,23.54-4.35,8.36-1.19,17.35-4.03,22.16-11.51,2.31-3.6,3.61-8.02,4.49-12.17s1.32-8.83,1.14-13.28-.8-9.11-2.28-13.3c-.6-1.7-1.49-3.26-3.1-4.19-1.89-1.09-4.42-1.11-6.53-1.21-4.59-.21-9.12.41-13.57,1.49-4.08,1-7.94,1.52-11.76-.62-6.88-3.85-5.99-12.77-11.74-17.49-6.99-5.74-15.09.44-22.64.74-7.7.31-14.85-4.72-18.92-10.97-.93-1.43-1.64-3.03-2.76-4.33-1.47-1.71-3.45-2.44-5.66-2.61-4.26-.33-8.92.24-12.92,1.77-15.3,5.85-19.69,23.97-33.35,31.9-3.36,1.95-6.99,2.88-10.87,2.44-2.87-.33-2.85,4.18,0,4.5Z"/>
  <path class="cls-1" d="m186.18,736.28c2.14-3.1,5.87-4.86,9.58-5.06,2.12-.11,4.21.18,6.24.79.98.29,1.94.64,2.88,1.07.8.36,2.27.86,2.87,1.56.86,1,.68,3.52.67,4.79-.02,2.04-.5,3.47-1.94,4.91-2.78,2.77-2.93,5.84-3.46,9.53-.23,1.61-.62,3.19-2.02,4.17-1.54,1.07-3.54,1.24-5.35,1.24-2.15,0-4.31-.24-6.46-.05s-4.2.82-6.25,1.48c-3.62,1.17-7.58,2.29-10.24-1.23-2.53-3.34-2.16-8.07-1.7-11.98.11-.94-.03-.78.58-1.26.52-.4,1.35-.63,1.94-.9,1.08-.5,2.15-1,3.23-1.5,1.63-.76,3.86-1.37,5.14-2.64,1.41-1.38,2.64-2.98,3.95-4.46,1.91-2.16-1.26-5.36-3.18-3.18-1.32,1.49-2.73,3.58-4.3,4.59-2.12,1.37-4.82,2.24-7.11,3.3-1.14.53-2.52.97-3.42,1.9s-1.12,2.19-1.26,3.44c-.58,5.04-.79,10.6,2.24,14.95,2.9,4.16,7.44,5.36,12.25,4.22,2.51-.59,4.88-1.71,7.43-2.14,2.7-.45,5.46.06,8.18-.07,4.51-.22,8.8-2.13,10.26-6.7.66-2.05.56-4.24.99-6.33.5-2.47,2.44-3.42,3.64-5.47,1.12-1.91,1.41-4.21,1.36-6.39s-.08-4.75-1.29-6.58c-1.47-2.22-4.77-3.35-7.16-4.2-2.66-.95-5.55-1.48-8.37-1.38-5.52.2-10.65,2.74-13.8,7.31-1.65,2.39,2.25,4.64,3.89,2.27Z"/>
  <path class="cls-1" d="m356.39,826.98c2.14-3.1,5.87-4.86,9.58-5.06,2.12-.11,4.21.18,6.24.79.98.29,1.94.64,2.88,1.07.8.36,2.27.86,2.87,1.56.86,1,.68,3.52.67,4.79-.02,2.04-.5,3.47-1.94,4.91-2.78,2.77-2.93,5.84-3.46,9.53-.23,1.61-.62,3.19-2.02,4.17-1.54,1.07-3.54,1.24-5.35,1.24-2.15,0-4.31-.24-6.46-.05s-4.2.82-6.25,1.48c-3.62,1.17-7.58,2.29-10.24-1.23-2.53-3.34-2.16-8.07-1.7-11.98.11-.94-.03-.78.58-1.26.52-.4,1.35-.63,1.94-.9,1.08-.5,2.15-1,3.23-1.5,1.63-.76,3.86-1.37,5.14-2.64,1.41-1.38,2.64-2.98,3.95-4.46,1.91-2.16-1.26-5.36-3.18-3.18-1.32,1.49-2.73,3.58-4.3,4.59-2.12,1.37-4.82,2.24-7.11,3.3-1.14.53-2.52.97-3.42,1.9s-1.12,2.19-1.26,3.44c-.58,5.04-.79,10.6,2.24,14.95,2.9,4.16,7.44,5.36,12.25,4.22,2.51-.59,4.88-1.71,7.43-2.14,2.7-.45,5.46.06,8.18-.07,4.51-.22,8.8-2.13,10.26-6.7.66-2.05.56-4.24.99-6.33.5-2.47,2.44-3.42,3.64-5.47,1.12-1.91,1.41-4.21,1.36-6.39s-.08-4.75-1.29-6.58c-1.47-2.22-4.77-3.35-7.16-4.2-2.66-.95-5.55-1.48-8.37-1.38-5.52.2-10.65,2.74-13.8,7.31-1.65,2.39,2.25,4.64,3.89,2.27Z"/>
  <path class="cls-1" d="m260.87,556.2c4.46-5.82,4.78-14.74,12.36-17.68,2.01-.78,4.14-1.39,5.94-2.6s3.09-2.79,4.21-4.56c2.14-3.39,3.71-6.74,6.93-9.3,6.31-5.01,15.6-6.81,23.48-5.96,4.23.45,7.89,2.2,10.67,5.42,2.37,2.75,3.96,6.11,5.71,9.26s3.73,6.41,6.44,8.9c2.9,2.67,6.45,4.32,10.04,5.84s7.28,2.89,10.12,5.48c3.21,2.93,4.85,6.95,8.86,9.04,3.67,1.92,7.83,2.34,11.63,3.89,3.54,1.44,6.68,3.93,8.98,6.96,5.83,7.66,4.94,16.85,2.09,25.52-1.47,4.48-2.99,9.26-5.4,13.34-2.26,3.83-5.84,6.41-9.96,7.98-9.03,3.43-19,2.47-28.17,5.41-8.34,2.67-15.59,7.67-23.13,11.95-3.7,2.1-7.5,4.05-11.55,5.37-4.85,1.58-9.91,2.26-14.98,2.59-4.47.29-8.97.45-13.44.41-4.05-.03-8.14-.32-12-1.61s-6.71-3.7-8.92-7.07-4.34-7.07-7.76-9.66c-5.61-4.26-12.81-5.39-19.56-6.63s-14.07-2.53-18.89-7.76c-5.62-6.09-6.13-15.32-6.81-23.14-.21-2.39-.42-4.78-.62-7.17s-.76-5.16-.54-7.65c.34-3.83,5.43-5.75,8.63-6.56,7.29-1.84,14.98-.51,22.4-.85,3.53-.16,7.12-.61,10.42-1.92,2.56-1.02,4.53-2.63,6.88-3.83l5.12-2.61c2.58-1.32.31-5.2-2.27-3.89-1.89.96-3.77,1.92-5.66,2.88-2.6,1.32-4.7,3.09-7.59,3.88-7.63,2.11-15.8.53-23.6,1-7.1.43-18.35,3.08-18.83,11.89-.14,2.52.32,5.15.54,7.65.25,2.87.5,5.73.75,8.6.39,4.39.82,8.82,1.93,13.09,2.09,8.02,6.87,14.3,14.61,17.5,7.04,2.91,14.76,3.23,22.04,5.27,3.38.94,6.77,2.3,9.41,4.68,3.24,2.93,4.91,7.11,7.68,10.44,5.63,6.78,14.95,7.94,23.22,7.96,9.92.02,20.46-.17,29.92-3.46,8.76-3.05,16.31-8.52,24.42-12.89,4.2-2.26,8.55-4.14,13.22-5.17,5.35-1.18,10.85-1.42,16.25-2.31,8.97-1.48,17.41-5.32,21.65-13.79,2.28-4.56,4.02-9.56,5.49-14.43s2.45-10.39,1.71-15.68c-1.13-8.05-6.33-15.43-13.48-19.29-3.89-2.1-8.23-2.59-12.28-4.22-4.52-1.82-6.09-6.26-9.61-9.27-6.19-5.29-15.23-6.01-20.84-12.04-5.33-5.73-7.09-14.04-13.18-19.2-7-5.93-17.38-5.57-25.8-3.46-4,1-7.95,2.64-11.29,5.08-3.59,2.63-5.9,5.93-8.08,9.75-1.04,1.83-2.12,3.62-3.96,4.74-2.02,1.23-4.42,1.73-6.56,2.74-3.72,1.76-6.06,5.06-7.74,8.7-1.59,3.45-2.79,7.09-5.13,10.14-1.76,2.3,2.15,4.54,3.89,2.27Z"/>
  <path class="cls-1" d="m468.1,545.27c4.3-.92,7.16,2.28,11.1,3.21,1.63.38,3.37.52,4.93,1.13,1.77.69,2.49,2.12,3.15,3.82,1.34,3.46,3.79,8.65,2.08,12.33-.82,1.77-2.32,2.12-4.1,2.4-2,.31-3.75.78-5.33,2.13-2.96,2.54-5.13,5.58-9.21,6.41-3.18.65-6.7-.61-7.99-3.74-.73-1.76-.97-3.7-1.66-5.48-.77-2-1.89-3.54-3.4-5.06-2.62-2.64-3.99-6.26-2.56-9.9,2.04-5.2,8.25-5.89,12.98-7.25,2.78-.8,1.6-5.14-1.2-4.34-5.79,1.66-12.26,2.72-15.34,8.6-2.14,4.07-1.96,9.17.46,13.09,1.2,1.95,3.2,3.24,4.31,5.22,1.28,2.28,1.42,5.03,2.51,7.41,1.83,3.96,6.07,6.16,10.35,6.12,4.56-.05,8.71-2.59,11.83-5.75.82-.83,1.56-1.92,2.61-2.47s2.29-.54,3.41-.73c2.32-.41,4.29-1.46,5.64-3.43,3.02-4.4,1.35-9.91-.24-14.5-.84-2.42-1.66-5.2-3.52-7.06s-4.26-2.42-6.68-2.9c-1.14-.22-2.3-.41-3.39-.82-1.21-.46-2.25-1.26-3.41-1.83-2.71-1.32-5.62-1.57-8.54-.94s-1.63,4.95,1.2,4.34Z"/>
  <path class="cls-1" d="m-4.12,313.24c4.3-.92,7.16,2.28,11.1,3.21,1.63.38,3.37.52,4.93,1.13,1.77.69,2.49,2.12,3.15,3.82,1.34,3.46,3.79,8.65,2.08,12.33-.82,1.77-2.32,2.12-4.1,2.4-2,.31-3.75.78-5.33,2.13-2.96,2.54-5.13,5.58-9.21,6.41-3.18.65-6.7-.61-7.99-3.74-.73-1.76-.97-3.7-1.66-5.48-.77-2-1.89-3.54-3.4-5.06-2.62-2.64-3.99-6.26-2.56-9.9,2.04-5.2,8.25-5.89,12.98-7.25,2.78-.8,1.6-5.14-1.2-4.34-5.79,1.66-12.26,2.72-15.34,8.6-2.14,4.07-1.96,9.17.46,13.09,1.2,1.95,3.2,3.24,4.31,5.22,1.28,2.28,1.42,5.03,2.51,7.41,1.83,3.96,6.07,6.16,10.35,6.12,4.56-.05,8.71-2.59,11.83-5.75.82-.83,1.56-1.92,2.61-2.47s2.29-.54,3.41-.73c2.32-.41,4.29-1.46,5.64-3.43,3.02-4.4,1.35-9.91-.24-14.5-.84-2.42-1.66-5.2-3.52-7.06s-4.26-2.42-6.68-2.9c-1.14-.22-2.3-.41-3.39-.82-1.21-.46-2.25-1.26-3.41-1.83-2.71-1.32-5.62-1.57-8.54-.94s-1.63,4.95,1.2,4.34Z"/>
  <path class="cls-1" d="m982.91,320.49c-1.43,3.64-.06,7.26,2.56,9.9,1.5,1.52,2.62,3.06,3.39,5.06.69,1.78.93,3.72,1.66,5.48,1.29,3.12,4.81,4.38,7.99,3.73.53-.11,1.02-.25,1.49-.43v4.7c-.98.25-1.99.39-3.02.4-4.29.04-8.52-2.16-10.35-6.12-1.1-2.37-1.23-5.13-2.52-7.41-1.11-1.98-3.11-3.27-4.31-5.22-2.42-3.92-2.59-9.02-.45-13.09,3.08-5.87,9.55-6.93,15.34-8.59.16-.03.32-.07.48-.09,1.63-.3,3.25-.32,4.83-.02v4.74c-1.27-.43-2.6-.61-4.12-.29-4.72,1.36-10.94,2.05-12.97,7.25Z"/>
  <path class="cls-1" d="m327.42,123.34c4.3-.92,7.16,2.28,11.1,3.21,1.63.38,3.37.52,4.93,1.13,1.77.69,2.49,2.12,3.15,3.82,1.34,3.46,3.79,8.65,2.08,12.33-.82,1.77-2.32,2.12-4.1,2.4-2,.31-3.75.78-5.33,2.13-2.96,2.54-5.13,5.58-9.21,6.41-3.18.65-6.7-.61-7.99-3.74-.73-1.76-.97-3.7-1.66-5.48-.77-2-1.89-3.54-3.4-5.06-2.62-2.64-3.99-6.26-2.56-9.9,2.04-5.2,8.25-5.89,12.98-7.25,2.78-.8,1.6-5.14-1.2-4.34-5.79,1.66-12.26,2.72-15.34,8.6-2.14,4.07-1.96,9.17.46,13.09,1.2,1.95,3.2,3.24,4.31,5.22,1.28,2.28,1.42,5.03,2.51,7.41,1.83,3.96,6.07,6.16,10.35,6.12,4.56-.05,8.71-2.59,11.83-5.75.82-.83,1.56-1.92,2.61-2.47s2.29-.54,3.41-.73c2.32-.41,4.29-1.46,5.64-3.43,3.02-4.4,1.35-9.91-.24-14.5-.84-2.42-1.66-5.2-3.52-7.06s-4.26-2.42-6.68-2.9c-1.14-.22-2.3-.41-3.39-.82-1.21-.46-2.25-1.26-3.41-1.83-2.71-1.32-5.62-1.57-8.54-.94s-1.63,4.95,1.2,4.34Z"/>
  <path class="cls-1" d="m487.63,600.41c1.87-3.14,5.33-6.16,9.08-6.66,1.11-.15,1.75.49,2.54,1.17.97.83,1.95,1.66,2.9,2.51.65.58,1.35,1.19,1.7,2.02.39.92.25,2,.02,2.94-.48,1.96-1.3,4.3-2.53,5.93-1.16,1.52-3.22,1.79-5.01,1.91-2.09.13-4.32,0-6.17-1.08-1.37-.8-2.58-2.26-2.59-3.89-.01-1.98.24-4,.35-5.98.07-1.21-1.09-2.25-2.25-2.25-1.28,0-2.18,1.03-2.25,2.25-.07,1.13-.13,2.27-.2,3.4-.08,1.37-.25,2.71,0,4.08,1.14,6.09,7.83,8.36,13.28,7.97,2.91-.21,5.96-.85,7.96-3.14,1.77-2.03,2.88-4.92,3.6-7.48.86-3.05.6-6.14-1.51-8.61-.95-1.11-2.15-2.02-3.25-2.98-1.21-1.05-2.4-2.25-3.92-2.84-3.05-1.2-6.75.38-9.36,2.01s-4.75,3.84-6.31,6.46,2.41,4.76,3.89,2.27Z"/>
  <path class="cls-1" d="m860.59,548.95c4.3-.92,7.16,2.28,11.1,3.21,1.63.38,3.37.52,4.93,1.13,1.77.69,2.49,2.12,3.15,3.82,1.34,3.46,3.79,8.65,2.08,12.33-.82,1.77-2.32,2.12-4.1,2.4-2,.31-3.75.78-5.33,2.13-2.96,2.54-5.13,5.58-9.21,6.41-3.18.65-6.7-.61-7.99-3.74-.73-1.76-.97-3.7-1.66-5.48-.77-2-1.89-3.54-3.4-5.06-2.62-2.64-3.99-6.26-2.56-9.9,2.04-5.2,8.25-5.89,12.98-7.25,2.78-.8,1.6-5.14-1.2-4.34-5.79,1.66-12.26,2.72-15.34,8.6-2.14,4.07-1.96,9.17.46,13.09,1.2,1.95,3.2,3.24,4.31,5.22,1.28,2.28,1.42,5.03,2.51,7.41,1.83,3.96,6.07,6.16,10.35,6.12,4.56-.05,8.71-2.59,11.83-5.75.82-.83,1.56-1.92,2.61-2.47s2.29-.54,3.41-.73c2.32-.41,4.29-1.46,5.64-3.43,3.02-4.4,1.35-9.91-.24-14.5-.84-2.42-1.66-5.2-3.52-7.06s-4.26-2.42-6.68-2.9c-1.14-.22-2.3-.41-3.39-.82-1.21-.46-2.25-1.26-3.41-1.83-2.71-1.32-5.62-1.57-8.54-.94s-1.63,4.95,1.2,4.34Z"/>
  <path class="cls-1" d="m880.12,604.09c1.87-3.14,5.33-6.16,9.08-6.66,1.11-.15,1.75.49,2.54,1.17.97.83,1.95,1.66,2.9,2.51.65.58,1.35,1.19,1.7,2.02.39.92.25,2,.02,2.94-.48,1.96-1.3,4.3-2.53,5.93-1.16,1.52-3.22,1.79-5.01,1.91-2.09.13-4.32,0-6.17-1.08-1.37-.8-2.58-2.26-2.59-3.89-.01-1.98.24-4,.35-5.98.07-1.21-1.09-2.25-2.25-2.25-1.28,0-2.18,1.03-2.25,2.25-.07,1.13-.13,2.27-.2,3.4-.08,1.37-.25,2.71,0,4.08,1.14,6.09,7.83,8.36,13.28,7.97,2.91-.21,5.96-.85,7.96-3.14,1.77-2.03,2.88-4.92,3.6-7.48.86-3.05.6-6.14-1.51-8.61-.95-1.11-2.15-2.02-3.25-2.98-1.21-1.05-2.4-2.25-3.92-2.84-3.05-1.2-6.75.38-9.36,2.01s-4.75,3.84-6.31,6.46,2.41,4.76,3.89,2.27Z"/>
  <path class="cls-1" d="m860.62,402.94c6.19,1.89,12.19-1.21,16.62-5.41,4.78-4.54,8.74-9.8,12.55-15.15,3.31-4.65,8.21-7.77,13.94-8.38s10.87,1.53,15.37,4.99c4.63,3.57,8.58,7.95,13.44,11.23,5.28,3.56,11.48,5.16,17.5,7s11.25,4.14,15.94,8.06c4.42,3.7,8,8.28,10.47,13.5,2.54,5.37,3.95,12.25.7,17.63-1.61,2.66-4.1,4.69-6.53,6.58-2.77,2.15-5.56,4.26-8.34,6.39-5.25,4.02-10.53,8.41-16.92,10.48-6.39,2.06-13.18,2.05-19.81,1.62-7.14-.46-14.27-1.55-21.44-1.25-7.15.29-14.01,2.81-21.19,2.48-3.71-.17-7.36-.86-10.98-1.62-2.76-.58-5.62-1.2-8.16-2.49-5.45-2.78-6.29-7.98-6.86-13.56-.54-5.38-1.39-10.69-5.46-14.61-3.52-3.38-8.64-5.13-11.59-9.07-3.25-4.34-1.37-10.41,2.36-13.8s9.71-4.78,14.84-4.64l4.17.11c2.9.08,2.9-4.43,0-4.5-4.22-.11-8.32-.19-12.46.84-6.09,1.52-11.55,5.24-13.95,11.2-2.17,5.38-1.1,11.29,3.09,15.34,3.71,3.6,9.44,5.41,12.2,9.94,3.06,5.02,1.95,11.52,3.52,17.01,1.77,6.22,6.67,9.72,12.65,11.49,6.82,2.02,14.59,3.46,21.71,2.75,3.82-.38,7.54-1.35,11.33-1.92s7.79-.57,11.69-.35c14.31.78,29.23,3.86,42.4-3.65,6.38-3.64,12.08-8.61,17.89-13.07,5.21-3.99,10.62-8.18,11.87-15.03,2.29-12.54-6.45-25.36-16.02-32.58-5.33-4.02-11.41-6.28-17.75-8.17-6.59-1.97-12.65-4.12-17.99-8.59-4.65-3.9-8.87-8.49-14.27-11.41s-11.58-3.68-17.51-2.1c-6.3,1.68-10.83,5.68-14.45,10.95-2.06,2.99-4.28,5.76-6.69,8.47-2.27,2.55-4.56,5.28-7.44,7.17-2.76,1.81-5.98,2.78-9.22,1.8-2.78-.85-3.96,3.5-1.2,4.34Z"/>
  <path class="cls-1" d="m840.32,688.4c6.19,1.89,12.19-1.21,16.62-5.41,4.78-4.54,8.74-9.8,12.55-15.15,3.31-4.65,8.21-7.77,13.94-8.38s10.87,1.53,15.37,4.99c4.63,3.57,8.58,7.95,13.44,11.23,5.28,3.56,11.48,5.16,17.5,7s11.25,4.14,15.94,8.06c4.42,3.7,8,8.28,10.47,13.5,2.54,5.37,3.95,12.25.7,17.63-1.61,2.66-4.1,4.69-6.53,6.58-2.77,2.15-5.56,4.26-8.34,6.39-5.25,4.02-10.53,8.41-16.92,10.48-6.39,2.06-13.18,2.05-19.81,1.62-7.14-.46-14.27-1.55-21.44-1.25-7.15.29-14.01,2.81-21.19,2.48-3.71-.17-7.36-.86-10.98-1.62-2.76-.58-5.62-1.2-8.16-2.49-5.45-2.78-6.29-7.98-6.86-13.56-.54-5.38-1.39-10.69-5.46-14.61-3.52-3.38-8.64-5.13-11.59-9.07-3.25-4.34-1.37-10.41,2.36-13.8s9.71-4.78,14.84-4.64l4.17.11c2.9.08,2.9-4.43,0-4.5-4.22-.11-8.32-.19-12.46.84-6.09,1.52-11.55,5.24-13.95,11.2-2.17,5.38-1.1,11.29,3.09,15.34,3.71,3.6,9.44,5.41,12.2,9.94,3.06,5.02,1.95,11.52,3.52,17.01,1.77,6.22,6.67,9.72,12.65,11.49,6.82,2.02,14.59,3.46,21.71,2.75,3.82-.38,7.54-1.35,11.33-1.92s7.79-.57,11.69-.35c14.31.78,29.23,3.86,42.4-3.65,6.38-3.64,12.08-8.61,17.89-13.07,5.21-3.99,10.62-8.18,11.87-15.03,2.29-12.54-6.45-25.36-16.02-32.58-5.33-4.02-11.41-6.28-17.75-8.17-6.59-1.97-12.65-4.12-17.99-8.59-4.65-3.9-8.87-8.49-14.27-11.41s-11.58-3.68-17.51-2.1c-6.3,1.68-10.83,5.68-14.45,10.95-2.06,2.99-4.28,5.76-6.69,8.47-2.27,2.55-4.56,5.28-7.44,7.17-2.76,1.81-5.98,2.78-9.22,1.8-2.78-.85-3.96,3.5-1.2,4.34Z"/>
  <path class="cls-1" d="m621.26,459.46c8.09-2.35,16.26-4.77,23.74-8.74,3.67-1.95,7.11-4.31,10.2-7.09,3.28-2.95,6.2-6.26,9.71-8.95,6.61-5.07,14.46-8.45,22.67-9.85,3.83-.65,7.93-.89,11.71.2,4.11,1.18,6.25,4.37,9.49,6.86s7.3,3.21,11.32,3.17c4.63-.04,9.27-.6,13.89-.95,4.24-.32,8.65-1.09,11.75,2.44,2.39,2.73,3.78,6.18,6.26,8.87,5.12,5.54,12.74,7.81,19.81,9.65s14.53,3.49,19.7,8.72c2.93,2.96,4.12,6.78,4.69,10.83.66,4.71,1.09,9.5,1.51,14.23.19,2.1.24,4.06-.78,5.97s-2.67,3.43-4.34,4.74c-2.73,2.15-5.9,3.75-9.17,4.91-13.83,4.9-29.21,3.61-42.5,10.33-3.98,2.01-7.52,4.75-11.2,7.24-3.6,2.43-7.31,4.72-11.25,6.56-8.6,4-17.67,4.29-26.96,3.28-9.93-1.07-19.82-2.62-29.72-3.96-4.81-.65-9.65-1.2-14.45-1.99s-8.2-2.49-11.93-5.19c-3.23-2.34-6.35-4.6-10.11-6.03-3.26-1.24-6.69-1.94-10.05-2.87-3.08-.86-6.34-1.9-8.74-4.13-2.87-2.66-3.77-6.47-4-10.25-.12-1.91-.13-3.83-.09-5.74.05-2.4.74-4,1.97-6.02,2.35-3.86,2.08-7.62,2.11-11.97.03-3.68,1.5-7.05,4.59-9.18,1.79-1.23,4.05-1.83,5.99-2.85l4.7-2.47c2.57-1.35.29-5.23-2.27-3.89l-5.14,2.7c-2.32,1.22-4.7,1.83-6.86,3.6-2.91,2.38-4.87,5.83-5.35,9.56-.27,2.12-.09,4.23-.09,6.36,0,2.46-.61,4.28-1.89,6.37-2.37,3.87-2.4,7.9-2.24,12.33.15,4.17.77,8.59,3.21,12.09,4.38,6.29,12.09,7.52,18.97,9.43,3.88,1.08,7.21,2.67,10.49,5.02,3.58,2.57,7,5.23,11.27,6.54,4.8,1.46,10.04,1.76,14.99,2.43,5.3.72,10.6,1.44,15.89,2.15,9.88,1.34,19.99,3.38,30,2.99s18.19-3.92,26.2-9c4.04-2.56,7.82-5.54,11.95-7.97,3.41-2.01,7.07-3.4,10.89-4.42,7.51-2.01,15.28-2.69,22.9-4.14,7.54-1.43,15-3.75,21.06-8.62,3.24-2.61,6.07-6,6.5-10.28.23-2.37-.18-4.77-.42-7.13-.27-2.56-.53-5.12-.8-7.68-.47-4.51-1-9.11-3.31-13.1-1.86-3.2-4.68-5.75-7.82-7.67-6.85-4.19-14.86-5.32-22.39-7.71-3.66-1.16-7.35-2.64-10.36-5.08s-4.64-5.91-6.91-9.04c-2.51-3.46-5.7-5.51-10.04-5.76-5.2-.29-10.65.64-15.84,1.03-4.07.3-8.78.77-12.35-1.62-1.7-1.13-2.98-2.79-4.49-4.14-1.61-1.44-3.41-2.56-5.42-3.34-7.7-3-17.13-1.1-24.64,1.58-8.62,3.08-15.79,8.17-22.25,14.56-3.25,3.21-6.63,6.09-10.59,8.39-3.79,2.21-7.83,3.93-11.96,5.4s-8.37,2.72-12.6,3.94c-2.78.81-1.6,5.15,1.2,4.34Z"/>
  <g>
    <path class="cls-1" d="m902.05,553.98c-.04,1.91-.03,3.83.08,5.74.24,3.78,1.14,7.59,4,10.25,2.4,2.23,5.66,3.27,8.74,4.13,3.35.94,6.78,1.63,10.05,2.87,3.75,1.44,6.87,3.7,10.11,6.04,3.73,2.7,7.35,4.43,11.93,5.19,4.79.78,9.63,1.33,14.44,1.98,9.9,1.35,19.79,2.89,29.72,3.97,2.9.31,5.77.5,8.62.49v4.58c-9.13-.01-18.34-1.81-27.34-3.04-5.29-.72-10.59-1.44-15.89-2.16-4.95-.67-10.19-.96-14.99-2.42-4.28-1.31-7.7-3.97-11.28-6.54-3.27-2.35-6.61-3.94-10.48-5.02-6.89-1.91-14.6-3.14-18.98-9.43-2.44-3.5-3.05-7.92-3.21-12.09-.16-4.43-.13-8.45,2.24-12.33,1.28-2.09,1.88-3.9,1.89-6.37,0-2.12-.18-4.24.09-6.36.48-3.73,2.44-7.18,5.36-9.55,2.15-1.77,4.53-2.38,6.85-3.6,1.72-.9,3.43-1.8,5.14-2.7.03-.01.05-.03.08-.04.14-.08.29-.14.46-.19,4.23-1.22,8.45-2.46,12.6-3.94,4.13-1.47,8.17-3.19,11.96-5.4,3.97-2.31,7.34-5.18,10.59-8.39,6.47-6.39,13.64-11.48,22.26-14.56,6.88-2.46,15.36-4.26,22.65-2.24v4.72c-.27-.1-.55-.2-.84-.28-3.77-1.09-7.87-.85-11.7-.2-8.22,1.4-16.06,4.78-22.67,9.85-3.51,2.69-6.44,6-9.71,8.95-3.09,2.78-6.54,5.14-10.2,7.09-7.4,3.93-15.47,6.34-23.47,8.66-1.48.77-2.96,1.55-4.44,2.33-1.94,1.02-4.19,1.62-5.99,2.85-3.1,2.12-4.57,5.5-4.59,9.17-.03,4.35.23,8.11-2.12,11.97-1.22,2.02-1.91,3.63-1.96,6.02Z"/>
    <path class="cls-1" d="m919.22,517.57c-2.17,1.13-.96,4.92,1.66,4.15.09-.03.18-.05.27-.08.09-.05.18-.09.27-.14,2.53-1.34.34-5.16-2.2-3.93h0Z"/>
  </g>
  <path class="cls-1" d="m102.15,554.74c-.42,4.28-3.26,7.67-6.5,10.27-6.05,4.88-13.52,7.2-21.05,8.63-7.62,1.44-15.39,2.12-22.9,4.13-3.82,1.02-7.48,2.42-10.89,4.42-4.13,2.43-7.9,5.41-11.95,7.97-8.01,5.09-16.61,8.64-26.2,9.01-.89.03-1.77.05-2.66.05v-4.58c6.29-.03,12.43-1.03,18.34-3.78,3.94-1.83,7.66-4.12,11.25-6.55,3.68-2.49,7.23-5.23,11.21-7.24,13.29-6.72,28.67-5.43,42.5-10.33,3.27-1.16,6.44-2.76,9.17-4.91,1.67-1.31,3.33-2.85,4.34-4.74,1.02-1.91.97-3.87.78-5.97-.43-4.74-.86-9.52-1.51-14.23-.57-4.05-1.76-7.86-4.69-10.83-5.18-5.23-12.83-6.94-19.7-8.72-7.07-1.84-14.7-4.11-19.82-9.65-2.48-2.69-3.87-6.14-6.26-8.87-3.1-3.54-7.51-2.77-11.75-2.44-4.61.35-9.26.9-13.88.95-4.03.03-8.08-.67-11.33-3.18-3-2.31-5.07-5.23-8.65-6.58v-4.72c.68.19,1.34.41,1.99.66,2.01.78,3.81,1.9,5.42,3.34,1.51,1.35,2.79,3,4.49,4.13,3.57,2.39,8.29,1.93,12.35,1.63,5.19-.39,10.64-1.33,15.84-1.03,4.35.25,7.53,2.29,10.04,5.76,2.27,3.12,3.85,6.55,6.91,9.03,3.01,2.44,6.71,3.92,10.37,5.08,7.53,2.39,15.53,3.52,22.38,7.71,3.14,1.92,5.97,4.46,7.82,7.67,2.32,3.99,2.84,8.59,3.32,13.1.27,2.56.53,5.12.8,7.68.24,2.35.66,4.76.42,7.13Z"/>
  <path class="cls-1" d="m450.05,696.39c8.09-2.35,16.26-4.77,23.74-8.74,3.67-1.95,7.11-4.31,10.2-7.09,3.28-2.95,6.2-6.26,9.71-8.95,6.61-5.07,14.46-8.45,22.67-9.85,3.83-.65,7.93-.89,11.71.2,4.11,1.18,6.25,4.37,9.49,6.86s7.3,3.21,11.32,3.17c4.63-.04,9.27-.6,13.89-.95,4.24-.32,8.65-1.09,11.75,2.44,2.39,2.73,3.78,6.18,6.26,8.87,5.12,5.54,12.74,7.81,19.81,9.65s14.53,3.49,19.7,8.72c2.93,2.96,4.12,6.78,4.69,10.83.66,4.71,1.09,9.5,1.51,14.23.19,2.1.24,4.06-.78,5.97s-2.67,3.43-4.34,4.74c-2.73,2.15-5.9,3.75-9.17,4.91-13.83,4.9-29.21,3.61-42.5,10.33-3.98,2.01-7.52,4.75-11.2,7.24-3.6,2.43-7.31,4.72-11.25,6.56-8.6,4-17.67,4.29-26.96,3.28-9.93-1.07-19.82-2.62-29.72-3.96-4.81-.65-9.65-1.2-14.45-1.99s-8.2-2.49-11.93-5.19c-3.23-2.34-6.35-4.6-10.11-6.03-3.26-1.24-6.69-1.94-10.05-2.87-3.08-.86-6.34-1.9-8.74-4.13-2.87-2.66-3.77-6.47-4-10.25-.12-1.91-.13-3.83-.09-5.74.05-2.4.74-4,1.97-6.02,2.35-3.86,2.08-7.62,2.11-11.97.03-3.68,1.5-7.05,4.59-9.18,1.79-1.23,4.05-1.83,5.99-2.85l4.7-2.47c2.57-1.35.29-5.23-2.27-3.89l-5.14,2.7c-2.32,1.22-4.7,1.83-6.86,3.6-2.91,2.38-4.87,5.83-5.35,9.56-.27,2.12-.09,4.23-.09,6.36,0,2.46-.61,4.28-1.89,6.37-2.37,3.87-2.4,7.9-2.24,12.33.15,4.17.77,8.59,3.21,12.09,4.38,6.29,12.09,7.52,18.97,9.43,3.88,1.08,7.21,2.67,10.49,5.02,3.58,2.57,7,5.23,11.27,6.54,4.8,1.46,10.04,1.76,14.99,2.43,5.3.72,10.6,1.44,15.89,2.15,9.88,1.34,19.99,3.38,30,2.99s18.19-3.92,26.2-9c4.04-2.56,7.82-5.54,11.95-7.97,3.41-2.01,7.07-3.4,10.89-4.42,7.51-2.01,15.28-2.69,22.9-4.14,7.54-1.43,15-3.75,21.06-8.62,3.24-2.61,6.07-6,6.5-10.28.23-2.37-.18-4.77-.42-7.13-.27-2.56-.53-5.12-.8-7.68-.47-4.51-1-9.11-3.31-13.1-1.86-3.2-4.68-5.75-7.82-7.67-6.85-4.19-14.86-5.32-22.39-7.71-3.66-1.16-7.35-2.64-10.36-5.08s-4.64-5.91-6.91-9.04c-2.51-3.46-5.7-5.51-10.04-5.76-5.2-.29-10.65.64-15.84,1.03-4.07.3-8.78.77-12.35-1.62-1.7-1.13-2.98-2.79-4.49-4.14-1.61-1.44-3.41-2.56-5.42-3.34-7.7-3-17.13-1.1-24.64,1.58-8.62,3.08-15.79,8.17-22.25,14.56-3.25,3.21-6.63,6.09-10.59,8.39-3.79,2.21-7.83,3.93-11.96,5.4s-8.37,2.72-12.6,3.94c-2.78.81-1.6,5.15,1.2,4.34Z"/>
  <path class="cls-1" d="m844.99,291.56c1.8,1.92,4.29,2.73,6.88,2.44.38-.04.84-.14,1.21-.05-.37-.09-.16-.23,0,.12.06.14.15.26.21.4.48,1.11.42,2.44.42,3.62,0,1.27-.01,2.54-.02,3.81,0,.48.09,1.08-.02,1.55-.1.44-.08.33-.44.45-.98.32-1.99.49-2.97.82-1.37.46-2.69,1.06-4.04,1.57-1.96.73-4.36,1.52-6.37.64-1.52-.66-2.48-2.2-2.85-3.77-.81-3.45,1.89-6.38,4.75-7.92,2-1.08,3.98-2.22,5.97-3.33,2.53-1.41.26-5.3-2.27-3.89-2.02,1.12-4.02,2.27-6.05,3.37-4.65,2.54-8,7.51-6.73,12.96.58,2.52,2.2,4.85,4.41,6.19,2.57,1.56,5.72,1.47,8.53.69,1.5-.42,2.93-1.06,4.38-1.63,1.37-.54,2.75-.87,4.16-1.28s2.74-1.17,3.44-2.52c.75-1.43.6-3.16.61-4.72.02-3.28.56-7.63-1.93-10.24-1.26-1.33-2.83-1.52-4.56-1.34-1.42.15-2.53-.07-3.53-1.14-1.98-2.12-5.16,1.07-3.18,3.18Z"/>
  <path class="cls-1" d="m863.26,269.9c4.25,1.61,8.11-1.65,10.15-5.09s3.55-6.9,8.04-7.29c1.72-.15,3.48.2,4.93,1.15,1.85,1.21,3.15,3.1,4.92,4.42,1.59,1.18,3.41,1.82,5.31,2.33s4.16.86,5.36,2.53c1.13,1.57,1.36,3.77,1.67,5.63.36,2.12.57,4.28.46,6.43-.24,4.61-2.67,7.89-6.96,9.56-4.59,1.79-9.75,2.35-14.64,2.17-1.03-.04-2.25.08-2.99-.74-.43-.47-.64-1.23-.85-1.81-.62-1.71-1.22-3.48-2.53-4.8-1.63-1.64-3.89-2.35-6.13-2.61-2.55-.3-5.29.27-7.77-.53-4.97-1.62-6.27-7.4-3.38-11.44l-1.35,1.03c2.32-.32,4.63-.64,6.95-.96,1.21-.17,1.85-1.71,1.57-2.77-.34-1.3-1.57-1.74-2.77-1.57-2.23.31-4.79.3-6.93.95-2.4.73-3.35,4.86-3.55,7.01-.24,2.66.51,5.41,2.07,7.58s3.69,3.72,6.19,4.49c3.02.93,6.17.17,9.21.76,2.83.55,3.38,2.29,4.32,4.7s2.34,4.35,4.99,4.93c3.08.67,6.62.35,9.72-.02,3.17-.38,6.37-.99,9.35-2.16,5.45-2.14,9.06-6.2,9.82-12.08.36-2.74.13-5.47-.27-8.19s-.85-5.77-2.48-8.11c-1.52-2.16-3.83-3.24-6.31-3.94-2.86-.81-4.99-1.45-7.15-3.59s-4.2-3.93-7.15-4.59c-2.77-.61-5.63-.31-8.22.85-2.76,1.24-4.61,3.44-6.05,6.03-1.23,2.22-3.09,6.61-6.36,5.37-2.71-1.03-3.88,3.32-1.2,4.34Z"/>
  <path class="cls-1" d="m413.01,7.74c1.8,1.92,4.29,2.73,6.88,2.44.38-.04.84-.14,1.21-.05-.37-.09-.16-.23,0,.12.06.14.15.26.21.4.48,1.11.42,2.44.42,3.62,0,1.27-.01,2.54-.02,3.81,0,.48.09,1.08-.02,1.55-.1.44-.08.33-.44.45-.98.32-1.99.49-2.97.82-1.37.46-2.69,1.06-4.04,1.57-1.96.73-4.36,1.52-6.37.64-1.52-.66-2.48-2.2-2.85-3.77-.81-3.45,1.89-6.38,4.75-7.92,2-1.08,3.98-2.22,5.97-3.33,2.53-1.41.26-5.3-2.27-3.89-2.02,1.12-4.02,2.27-6.05,3.37-4.65,2.54-8,7.51-6.73,12.96.58,2.52,2.2,4.85,4.41,6.19,2.57,1.56,5.72,1.47,8.53.69,1.5-.42,2.93-1.06,4.38-1.63,1.37-.54,2.75-.87,4.16-1.28s2.74-1.17,3.44-2.52c.75-1.43.6-3.16.61-4.72.02-3.28.56-7.63-1.93-10.24-1.26-1.33-2.83-1.52-4.56-1.34-1.42.15-2.53-.07-3.53-1.14-1.98-2.12-5.16,1.07-3.18,3.18Z"/>
  <path class="cls-1" d="m424.6,964.51c4.25,1.61,8.11-1.65,10.15-5.09s3.55-6.9,8.04-7.29c1.72-.15,3.48.2,4.93,1.15,1.85,1.21,3.15,3.1,4.92,4.42,1.59,1.18,3.41,1.82,5.31,2.33s4.16.86,5.36,2.53c1.13,1.57,1.36,3.77,1.67,5.63.36,2.12.57,4.28.46,6.43-.24,4.61-2.67,7.89-6.96,9.56-4.59,1.79-9.75,2.35-14.64,2.17-1.03-.04-2.25.08-2.99-.74-.43-.47-.64-1.23-.85-1.81-.62-1.71-1.22-3.48-2.53-4.8-1.63-1.64-3.89-2.35-6.13-2.61-2.55-.3-5.29.27-7.77-.53-4.97-1.62-6.27-7.4-3.38-11.44l-1.35,1.03c2.32-.32,4.63-.64,6.95-.96,1.21-.17,1.85-1.71,1.57-2.77-.34-1.3-1.57-1.74-2.77-1.57-2.23.31-4.79.3-6.93.95-2.4.73-3.35,4.86-3.55,7.01-.24,2.66.51,5.41,2.07,7.58s3.69,3.72,6.19,4.49c3.02.93,6.17.17,9.21.76,2.83.55,3.38,2.29,4.32,4.7s2.34,4.35,4.99,4.93c3.08.67,6.62.35,9.72-.02,3.17-.38,6.37-.99,9.35-2.16,5.45-2.14,9.06-6.2,9.82-12.08.36-2.74.13-5.47-.27-8.19s-.85-5.77-2.48-8.11c-1.52-2.16-3.83-3.24-6.31-3.94-2.86-.81-4.99-1.45-7.15-3.59s-4.2-3.93-7.15-4.59c-2.77-.61-5.63-.31-8.22.85-2.76,1.24-4.61,3.44-6.05,6.03-1.23,2.22-3.09,6.61-6.36,5.37-2.71-1.03-3.88,3.32-1.2,4.34Z"/>
  <path class="cls-1" d="m692.84,758.07c6.19,1.89,12.19-1.21,16.62-5.41,4.78-4.54,8.74-9.8,12.55-15.15,3.31-4.65,8.21-7.77,13.94-8.38s10.87,1.53,15.37,4.99c4.63,3.57,8.58,7.95,13.44,11.23,5.28,3.56,11.48,5.16,17.5,7s11.25,4.14,15.94,8.06c4.42,3.7,8,8.28,10.47,13.5,2.54,5.37,3.95,12.25.7,17.63-1.61,2.66-4.1,4.69-6.53,6.58-2.77,2.15-5.56,4.26-8.34,6.39-5.25,4.02-10.53,8.41-16.92,10.48-6.39,2.06-13.18,2.05-19.81,1.62-7.14-.46-14.27-1.55-21.44-1.25-7.15.29-14.01,2.81-21.19,2.48-3.71-.17-7.36-.86-10.98-1.62-2.76-.58-5.62-1.2-8.16-2.49-5.45-2.78-6.29-7.98-6.86-13.56-.54-5.38-1.39-10.69-5.46-14.61-3.52-3.38-8.64-5.13-11.59-9.07-3.25-4.34-1.37-10.41,2.36-13.8s9.71-4.78,14.84-4.64l4.17.11c2.9.08,2.9-4.43,0-4.5-4.22-.11-8.32-.19-12.46.84-6.09,1.52-11.55,5.24-13.95,11.2-2.17,5.38-1.1,11.29,3.09,15.34,3.71,3.6,9.44,5.41,12.2,9.94,3.06,5.02,1.95,11.52,3.52,17.01,1.77,6.22,6.67,9.72,12.65,11.49,6.82,2.02,14.59,3.46,21.71,2.75,3.82-.38,7.54-1.35,11.33-1.92s7.79-.57,11.69-.35c14.31.78,29.23,3.86,42.4-3.65,6.38-3.64,12.08-8.61,17.89-13.07,5.21-3.99,10.62-8.18,11.87-15.03,2.29-12.54-6.45-25.36-16.02-32.58-5.33-4.02-11.41-6.28-17.75-8.17-6.59-1.97-12.65-4.12-17.99-8.59-4.65-3.9-8.87-8.49-14.27-11.41-5.38-2.91-11.58-3.68-17.51-2.1-6.3,1.68-10.83,5.68-14.45,10.95-2.06,2.99-4.28,5.76-6.69,8.47-2.27,2.55-4.56,5.28-7.44,7.17-2.76,1.81-5.98,2.78-9.22,1.8-2.78-.85-3.96,3.5-1.2,4.34Z"/>
  <path class="cls-1" d="m677.2,646.69c1.8,1.92,4.29,2.73,6.88,2.44.38-.04.84-.14,1.21-.05-.37-.09-.16-.23,0,.12.06.14.15.26.21.4.48,1.11.42,2.44.42,3.62,0,1.27-.01,2.54-.02,3.81,0,.48.09,1.08-.02,1.55-.1.44-.08.33-.44.45-.98.32-1.99.49-2.97.82-1.37.46-2.69,1.06-4.04,1.57-1.96.73-4.36,1.52-6.37.64-1.52-.66-2.48-2.2-2.85-3.77-.81-3.45,1.89-6.38,4.75-7.92,2-1.08,3.98-2.22,5.97-3.33,2.53-1.41.26-5.3-2.27-3.89-2.02,1.12-4.02,2.27-6.05,3.37-4.65,2.54-8,7.51-6.73,12.96.58,2.52,2.2,4.85,4.41,6.19,2.57,1.56,5.72,1.47,8.53.69,1.5-.42,2.93-1.06,4.38-1.63,1.37-.54,2.75-.87,4.16-1.28s2.74-1.17,3.44-2.52c.75-1.43.6-3.16.61-4.72.02-3.28.56-7.63-1.93-10.24-1.26-1.33-2.83-1.52-4.56-1.34-1.42.15-2.53-.07-3.53-1.14-1.98-2.12-5.16,1.07-3.18,3.18Z"/>
  <path class="cls-1" d="m695.48,625.03c4.25,1.61,8.11-1.65,10.15-5.09s3.55-6.9,8.04-7.29c1.72-.15,3.48.2,4.93,1.15,1.85,1.21,3.15,3.1,4.92,4.42,1.59,1.18,3.41,1.82,5.31,2.33s4.16.86,5.36,2.53c1.13,1.57,1.36,3.77,1.67,5.63.36,2.12.57,4.28.46,6.43-.24,4.61-2.67,7.89-6.96,9.56-4.59,1.79-9.75,2.35-14.64,2.17-1.03-.04-2.25.08-2.99-.74-.43-.47-.64-1.23-.85-1.81-.62-1.71-1.22-3.48-2.53-4.8-1.63-1.64-3.89-2.35-6.13-2.61-2.55-.3-5.29.27-7.77-.53-4.97-1.62-6.27-7.4-3.38-11.44l-1.35,1.03c2.32-.32,4.63-.64,6.95-.96,1.21-.17,1.85-1.71,1.57-2.77-.34-1.3-1.57-1.74-2.77-1.57-2.23.31-4.79.3-6.93.95-2.4.73-3.35,4.86-3.55,7.01-.24,2.66.51,5.41,2.07,7.58s3.69,3.72,6.19,4.49c3.02.93,6.17.17,9.21.76,2.83.55,3.38,2.29,4.32,4.7s2.34,4.35,4.99,4.93c3.08.67,6.62.35,9.72-.02,3.17-.38,6.37-.99,9.35-2.16,5.45-2.14,9.06-6.2,9.82-12.08.36-2.74.13-5.47-.27-8.19s-.85-5.77-2.48-8.11c-1.52-2.16-3.83-3.24-6.31-3.94-2.86-.81-4.99-1.45-7.15-3.59s-4.2-3.93-7.15-4.59c-2.77-.61-5.63-.31-8.22.85-2.76,1.24-4.61,3.44-6.05,6.03-1.23,2.22-3.09,6.61-6.36,5.37-2.71-1.03-3.88,3.32-1.2,4.34Z"/>
  <path class="cls-1" d="m778.21,88.74c6.61-3.65,14.14-5.24,21.66-4.55,7.64.7,15.33,4.27,23.02,1.81,3.65-1.16,6.6-3.56,9.83-5.51,2.93-1.77,6.06-3.15,9.34-4.12,6.77-2.02,14-2.41,20.98-1.41,6.52.94,13.95,2.86,19.3,6.88,5.93,4.46,5.19,11.98,6.96,18.44,1.87,6.86,7.02,11.66,12.37,15.98,5.84,4.71,12.26,9.13,17.31,14.73s7.22,12.36,5.47,19.53c-1.56,6.38-6.12,11.15-11.84,14.12-13.4,6.97-29,3.76-43.43,4.66-8.15.51-15.59,3.06-23.44,5.06-8.08,2.06-16.4,3.04-24.74,2.93-3.4-.05-8.02.32-10.84-1.95-2.6-2.09-3.72-5.74-5.7-8.36-4.07-5.37-9.56-8.18-15.87-10.1-2.61-.8-5.79-1.62-7.48-3.95-1.98-2.73-1.11-6.72-1.92-9.84-1.5-5.8-6.93-8.74-11.55-11.82-2.45-1.63-4.72-3.44-6.11-6.09s-1.81-5.77-1.25-8.65c.7-3.55,2.94-6.02,5.18-8.71s4.26-5.86,5.7-9.23,2.24-6.64,2.7-10.16l-1.65,2.17,5.45-1.63c2.77-.83,1.59-5.18-1.2-4.34l-5.45,1.63c-1.06.32-1.52,1.15-1.65,2.17-.5,3.83-1.72,7.59-3.56,10.99-1.88,3.47-4.58,6.18-6.88,9.34-4,5.49-4.4,12.98-1.14,18.93,3.1,5.66,9.17,7.71,13.79,11.75,2.52,2.2,3.45,4.58,3.7,7.89.27,3.55.71,6.99,3.39,9.6,4.65,4.52,12,4.38,17.26,7.99,3.03,2.07,5.24,4.86,7.03,8.03s3.74,6.16,7.28,7.55,7.75,1.3,11.51,1.32c4.33.02,8.65-.24,12.94-.79s8.71-1.37,12.97-2.49,8.17-2.46,12.33-3.42c15.82-3.65,32.4,1.07,48.07-3.79,6.36-1.97,12.37-5.37,16.47-10.72,4.39-5.74,5.94-13.23,4.45-20.28-3.33-15.73-20.93-22.43-30.82-33.3-2.55-2.81-4.14-5.96-4.92-9.67-.73-3.49-.94-7.1-2.07-10.51-2.38-7.21-8.67-10.8-15.43-13.29-13.83-5.09-30-5.09-43.19,1.87-3.39,1.79-6.37,4.47-9.93,5.92-3.87,1.58-8.12,1.03-12.09.25-4.18-.82-8.3-1.84-12.58-2.02-3.81-.16-7.68.24-11.39,1.13s-7.29,2.32-10.63,4.17c-2.54,1.4-.27,5.29,2.27,3.89Z"/>
  <path class="cls-1" d="m999.74,72.3s.09-.01.13-.01v5.09s-.09.01-.13.02c-6.04.89-11.07,4.94-17.59,3.98-4.15-.61-7.31-3.48-10.42-6.57-2.91-2.87-5.56-4.45-9.24-4.8-6.77-.63-12.98,1.52-19.94-1.62-7.33-3.31-13.19-10.46-14.72-18.18-.88-4.44-1.09-8.74-2.55-13.18-1.42-4.35-3.59-8.63-6.37-12.49-.74-1.03-1.08-2.11-.56-3.1.86-1.62,1.73-3.25,2.59-4.88.98-3.81,2.43-7.41,4.43-10.61,1.3-2.09,2.81-4.05,4.51-5.82.03-.04.07-.07.11-.11h8.62c-.06.03-.11.06-.16.11-.1.06-.2.12-.29.19-6.17,4.37-10.48,10.86-12.41,18.62t-.01.02v.02c-.03.11-.07.22-.11.32-.02.07-.06.13-.09.2-.02.03-.04.07-.06.1-.66,1.24-1.32,2.49-1.97,3.74,2.01,2.98,3.73,6.06,5.1,9.35,1.7,4.06,2.77,8.15,3.34,12.29.55,3.98.91,7.75,3.3,11.47,1.94,3.02,4.89,5.65,8.04,7.13,3.22,1.51,6.4,1.66,9.56,1.53,5.98-.24,12.44-1.15,18.33,3.18,3.17,2.34,5.81,6.59,9.52,7.78,3.18,1.02,6.23-.34,8.83-1.35,3.33-1.29,6.68-2.19,10.21-2.42Z"/>
  <path class="cls-1" d="m94.03.13c-.23.98-.5,1.94-.81,2.89-.62,1.88-1.39,3.69-2.28,5.41-7.69,14.91-23.94,21.61-32.74,35.51-2.31,3.66-4.19,7.62-6.38,11.37-2.25,3.87-4.82,7.5-7.62,10.93-2.75,3.36-5.76,6.49-9,9.35-2.83,2.49-5.87,5.37-9.67,6.45-3.79,1.08-7.69-.37-11.64-2.1-3.94-1.72-7.88-2.82-11.84-2.71-.58.02-1.16.07-1.72.15-.05,0-.09.01-.13.02v-5.1s.09-.01.13-.01c3.11-.2,6.35.12,9.81,1.16,3.63,1.09,7.47,3.7,11.12,3.89,3.98.21,7.12-3.2,9.69-5.42,6.31-5.45,11.71-11.9,16.04-19.18,4.2-7.07,7.65-14.38,13.32-20.27,9.16-9.55,21.88-16.59,27.24-29.45.39-.93.74-1.89,1.04-2.89h5.44Z"/>
  <path class="cls-1" d="m93.97,996.98c-.23.98-.5,1.94-.81,2.89h-5.67c.39-.93.74-1.89,1.04-2.89.1-.29.19-.58.27-.88,1.82-6.54,1.3-13.98-2.78-20.89-4.59-7.76-12.1-12.6-20.14-14.32-8.37-1.79-16.78-1.58-25.02-2.03-7.55-.41-15.33-1.4-22.37-6.47-6.03-4.34-11.24-10.86-18.22-12.12-.04-.01-.08-.02-.13-.02v-4.91s.09.02.13.02c2.83.48,5.69,1.54,8.56,3.42,3.63,2.38,6.76,5.57,10.18,8.3,3.63,2.89,7.41,4.73,11.62,5.62,16.32,3.41,34.95-2.14,50.36,10.11,6.91,5.5,11.92,13.43,13.36,21.64.77,4.38.54,8.59-.38,12.53Z"/>
  <path class="cls-1" d="m999.87,938.63v4.91s-.08-.02-.13-.02c-.65-.11-1.32-.18-2-.19-7.29-.14-14.42,3.04-20.05,6.52-6.03,3.73-11.1,8.91-14.49,15.28-1.64,3.08-2.85,6.43-3.58,10.02-.8,3.95-1.03,8.12-2.8,11.62-3.65,7.27-12.12,9.16-18.37,13.48h-8.57c.96-1,1.98-1.94,3.05-2.8,3.33-2.68,7.25-4.49,11.04-6.52,3.61-1.93,7.23-4.25,8.82-8.28,1.46-3.71,1.47-8.16,2.53-12.06,4.13-15.19,16.19-25.96,30.68-30.49,4.41-1.38,9.03-2.24,13.74-1.49.05.01.09.02.13.02Z"/>
  <path class="cls-1" d="m923.51,23.34c-.23.43-.46.87-.69,1.3-.19-1.04-.37-2.07-.56-3.1.43.6.85,1.19,1.25,1.8Z"/>
</svg>