<?xml version="1.0" encoding="UTF-8"?>
<svg id="Layer_1" data-name="Layer 1" xmlns="http://www.w3.org/2000/svg" viewBox="0 0 1000 1000">
  <defs>
    <style>
      .cls-1 {
        fill: #faf6eb;
      }
    </style>
  </defs>
  <path class="cls-1" d="m816.19,765.31c-26.38,31.44-73.26,35.54-104.7,9.16L192.97,339.38c-31.44-26.38-35.54-73.26-9.16-104.7,26.38-31.44,73.26-35.54,104.7-9.16l518.52,435.09c31.44,26.38,35.54,73.26,9.16,104.7Z"/>
  <path class="cls-1" d="m774.47,288.51l-435.09,518.52c-26.38,31.44-73.26,35.54-104.7,9.16-31.44-26.38-35.54-73.26-9.16-104.7L660.62,192.97c26.38-31.44,73.26-35.54,104.7-9.16,31.44,26.38,35.54,73.26,9.16,104.7Z"/>
</svg>