<?xml version="1.0" encoding="UTF-8"?>
<svg id="Layer_1" data-name="Layer 1" xmlns="http://www.w3.org/2000/svg" viewBox="0 0 1000 1000">
  <defs>
    <style>
      .cls-1 {
        fill: #f2cfcb;
      }
    </style>
  </defs>
  <path class="cls-1" d="m687.69,863.87H99.25c-20.61,0-37.37-16.77-37.37-37.37V87.81c0-20.61,16.77-37.37,37.37-37.37h588.44c20.61,0,37.37,16.77,37.37,37.37v226.61c0,18.57-15.05,33.62-33.62,33.62s-33.62-15.05-33.62-33.62V117.68H129.11v678.96h528.72v-196.75c0-18.57,15.05-33.62,33.62-33.62s33.62,15.05,33.62,33.62v226.61c0,20.61-16.77,37.37-37.37,37.37Z"/>
  <path class="cls-1" d="m454.79,943.16l-354.6-67.69c-23.28-4.44-40.11-24.8-40.11-48.49V112.89c0-30.98,28.2-54.3,58.63-48.49l352.02,67.2c20.03,3.82,34.51,21.34,34.51,41.72v728.12c0,26.65-24.26,46.72-50.44,41.72Z"/>
  <g>
    <path class="cls-1" d="m914.3,496.57h-298.81c-19.21,0-34.78-15.57-34.78-34.78s15.57-34.78,34.78-34.78h298.81c19.21,0,34.78,15.57,34.78,34.78s-15.57,34.78-34.78,34.78Z"/>
    <path class="cls-1" d="m920.14,496.57c-8.36,0-16.74-2.99-23.4-9.06l-125.2-113.98c-14.2-12.93-15.24-34.93-2.3-49.13,12.93-14.21,34.93-15.23,49.13-2.3l125.2,113.98c14.2,12.93,15.24,34.93,2.3,49.13-6.86,7.54-16.28,11.37-25.73,11.37Z"/>
    <path class="cls-1" d="m794.96,610.55c-9.45,0-18.86-3.83-25.73-11.37-12.93-14.2-11.9-36.2,2.3-49.13l125.2-113.98c14.2-12.93,36.2-11.9,49.13,2.31s11.9,36.2-2.3,49.13l-125.2,113.98c-6.66,6.07-15.05,9.06-23.4,9.06Z"/>
  </g>
</svg>