<?xml version="1.0" encoding="UTF-8"?>
<svg id="Layer_1" data-name="Layer 1" xmlns="http://www.w3.org/2000/svg" viewBox="0 0 1000 1000">
  <defs>
    <style>
      .cls-1 {
        fill: #faf6eb;
      }
    </style>
  </defs>
  <g>
    <path class="cls-1" d="m500,813.83c-31.21,0-56.5-25.3-56.5-56.5V242.67c0-31.21,25.3-56.5,56.5-56.5s56.5,25.3,56.5,56.5v514.66c0,31.21-25.3,56.5-56.5,56.5Z"/>
    <path class="cls-1" d="m757.33,556.5H242.67c-31.21,0-56.5-25.3-56.5-56.5s25.3-56.5,56.5-56.5h514.66c31.21,0,56.5,25.3,56.5,56.5s-25.3,56.5-56.5,56.5Z"/>
  </g>
  <path class="cls-1" d="m500,953.49c-61.67,0-121.51-12.09-177.87-35.92-54.41-23.01-103.28-55.96-145.23-97.91-41.95-41.95-74.89-90.81-97.91-145.23-23.84-56.35-35.92-116.2-35.92-177.87s12.09-121.51,35.92-177.87c23.02-54.41,55.96-103.27,97.91-145.23s90.81-74.89,145.23-97.91c56.35-23.84,116.2-35.92,177.87-35.92s121.51,12.09,177.86,35.92c54.41,23.02,103.28,55.96,145.23,97.91s74.89,90.81,97.91,145.23c23.84,56.35,35.92,116.2,35.92,177.87s-12.09,121.51-35.92,177.87c-23.02,54.41-55.96,103.28-97.91,145.23-41.95,41.95-90.81,74.89-145.23,97.91-56.35,23.84-116.2,35.92-177.86,35.92Zm0-841.84c-212.25,0-384.92,172.67-384.92,384.92s172.67,384.92,384.92,384.92,384.92-172.67,384.92-384.92S712.25,111.65,500,111.65Z"/>
</svg>